G75*
G70*
%OFA0B0*%
%FSLAX24Y24*%
%IPPOS*%
%LPD*%
%AMOC8*
5,1,8,0,0,1.08239X$1,22.5*
%
%ADD10C,0.0872*%
%ADD11C,0.0792*%
%ADD12C,0.0500*%
%ADD13C,0.0860*%
%ADD14C,0.0860*%
%ADD15C,0.0709*%
D10*
X003350Y004350D03*
X003350Y005350D03*
X003350Y006350D03*
X003350Y007350D03*
X003350Y008350D03*
X003350Y009350D03*
X003350Y010350D03*
X003350Y011350D03*
X003350Y012350D03*
X003350Y013350D03*
X003350Y014350D03*
X003350Y015350D03*
X003350Y016350D03*
X004350Y016350D03*
X004350Y015350D03*
X004350Y014350D03*
X004350Y013350D03*
X004350Y012350D03*
X004350Y011350D03*
X004350Y010350D03*
X004350Y009350D03*
X004350Y008350D03*
X004350Y007350D03*
X004350Y006350D03*
X004350Y005350D03*
X004350Y004350D03*
X018350Y004850D03*
X018350Y005850D03*
X018350Y006850D03*
X018350Y007850D03*
X018350Y008850D03*
X018350Y009850D03*
X018350Y010850D03*
X018350Y011850D03*
X018350Y012850D03*
X018350Y013850D03*
D11*
X014850Y013350D03*
X013850Y013350D03*
X012850Y013350D03*
X012350Y012350D03*
X012850Y011350D03*
X012350Y010350D03*
X012850Y009350D03*
X013850Y009350D03*
X014850Y009350D03*
X014850Y011350D03*
X013850Y011350D03*
X012350Y008350D03*
X012850Y007350D03*
X013850Y007350D03*
X014850Y007350D03*
X014850Y005350D03*
X013850Y005350D03*
X012850Y005350D03*
X012350Y004350D03*
X012850Y003350D03*
X013850Y003350D03*
X014850Y003350D03*
X016850Y002850D03*
X016850Y003850D03*
X016850Y004850D03*
X012350Y006350D03*
X012350Y002350D03*
X007350Y002350D03*
X007350Y004350D03*
X005850Y005350D03*
X005850Y006350D03*
X005850Y007350D03*
X005850Y008350D03*
X006350Y009350D03*
X006350Y010350D03*
X006350Y011350D03*
X006350Y012350D03*
X007350Y012350D03*
X007350Y010350D03*
X007350Y008350D03*
X007350Y006350D03*
X003850Y003350D03*
X003850Y002350D03*
X004850Y002350D03*
X004850Y001350D03*
X007350Y014350D03*
X006850Y015350D03*
X007350Y016350D03*
X007350Y017350D03*
X008350Y017350D03*
X005850Y015350D03*
X012350Y014350D03*
X012850Y015350D03*
X012350Y016350D03*
X013850Y015350D03*
X014850Y015350D03*
D12*
X000700Y010350D02*
X000700Y000700D01*
X004483Y000700D01*
X004435Y000728D01*
X004357Y000788D01*
X004288Y000857D01*
X004228Y000935D01*
X004179Y001019D01*
X004142Y001110D01*
X004117Y001204D01*
X004104Y001301D01*
X004104Y001350D01*
X004850Y001350D01*
X003350Y001350D01*
X004850Y001350D01*
X005850Y001350D01*
X006850Y002350D01*
X007350Y002350D01*
X008186Y002843D02*
X011514Y002843D01*
X011535Y002894D02*
X011389Y002541D01*
X011389Y002159D01*
X011535Y001806D01*
X011806Y001535D01*
X012159Y001389D01*
X012541Y001389D01*
X012894Y001535D01*
X015512Y001535D01*
X015812Y001659D01*
X016404Y002252D01*
X016435Y002228D01*
X016519Y002179D01*
X016610Y002142D01*
X016704Y002117D01*
X016801Y002104D01*
X016850Y002104D01*
X016850Y002697D01*
X016850Y002697D01*
X016850Y000700D01*
X006353Y000700D01*
X006541Y000888D01*
X007076Y001423D01*
X007159Y001389D01*
X007541Y001389D01*
X007894Y001535D01*
X008165Y001806D01*
X008311Y002159D01*
X008311Y002541D01*
X008165Y002894D01*
X007894Y003165D01*
X007541Y003311D01*
X007159Y003311D01*
X006806Y003165D01*
X006688Y003165D01*
X006388Y003041D01*
X005588Y002241D01*
X005596Y002301D01*
X005596Y002350D01*
X005596Y002399D01*
X005583Y002496D01*
X005558Y002590D01*
X005521Y002681D01*
X005472Y002765D01*
X005448Y002796D01*
X006188Y003535D01*
X006806Y003535D01*
X007159Y003389D01*
X007541Y003389D01*
X007894Y003535D01*
X008165Y003806D01*
X008311Y004159D01*
X008311Y004541D01*
X008165Y004894D01*
X007894Y005165D01*
X007541Y005311D01*
X007159Y005311D01*
X006806Y005165D01*
X006573Y005165D01*
X006583Y005204D01*
X006596Y005301D01*
X006596Y005350D01*
X006596Y005399D01*
X006583Y005496D01*
X006573Y005535D01*
X006806Y005535D01*
X007159Y005389D01*
X007541Y005389D01*
X007894Y005535D01*
X008165Y005806D01*
X008311Y006159D01*
X008311Y006541D01*
X008165Y006894D01*
X007894Y007165D01*
X007541Y007311D01*
X007159Y007311D01*
X006806Y007165D01*
X006573Y007165D01*
X006583Y007204D01*
X006596Y007301D01*
X006596Y007350D01*
X006596Y007399D01*
X006583Y007496D01*
X006573Y007535D01*
X006806Y007535D01*
X007159Y007389D01*
X007541Y007389D01*
X007894Y007535D01*
X008165Y007806D01*
X008311Y008159D01*
X008311Y008541D01*
X008165Y008894D01*
X007894Y009165D01*
X007541Y009311D01*
X007159Y009311D01*
X007094Y009284D01*
X007096Y009301D01*
X007096Y009350D01*
X007096Y009399D01*
X007094Y009416D01*
X007159Y009389D01*
X007541Y009389D01*
X007894Y009535D01*
X008165Y009806D01*
X008311Y010159D01*
X008311Y010541D01*
X008165Y010894D01*
X007894Y011165D01*
X007541Y011311D01*
X007159Y011311D01*
X007094Y011284D01*
X007096Y011301D01*
X007096Y011350D01*
X007096Y011399D01*
X007094Y011416D01*
X007159Y011389D01*
X007541Y011389D01*
X007894Y011535D01*
X008165Y011806D01*
X008311Y012159D01*
X008311Y012541D01*
X008165Y012894D01*
X007894Y013165D01*
X007541Y013311D01*
X007159Y013311D01*
X006850Y013183D01*
X006541Y013311D01*
X006159Y013311D01*
X005806Y013165D01*
X005688Y013165D01*
X005388Y013041D01*
X005247Y012900D01*
X005351Y013151D01*
X005351Y013549D01*
X005199Y013917D01*
X005074Y014042D01*
X005096Y014097D01*
X005123Y014196D01*
X005136Y014298D01*
X005136Y014350D01*
X005136Y014402D01*
X005123Y014504D01*
X005096Y014603D01*
X005074Y014658D01*
X005128Y014712D01*
X005306Y014535D01*
X005659Y014389D01*
X006388Y013659D01*
X006688Y013535D01*
X006806Y013535D01*
X007159Y013389D01*
X007541Y013389D01*
X007894Y013535D01*
X008165Y013806D01*
X008311Y014159D01*
X008311Y014541D01*
X008165Y014894D01*
X007894Y015165D01*
X007595Y015289D01*
X007596Y015301D01*
X007596Y015350D01*
X007003Y015350D01*
X007003Y015350D01*
X007596Y015350D01*
X007596Y015399D01*
X007595Y015411D01*
X007894Y015535D01*
X008165Y015806D01*
X008311Y016159D01*
X008311Y016541D01*
X008284Y016606D01*
X008301Y016604D01*
X008350Y016604D01*
X008399Y016604D01*
X008496Y016617D01*
X008590Y016642D01*
X008681Y016679D01*
X008765Y016728D01*
X008843Y016788D01*
X008912Y016857D01*
X008972Y016935D01*
X009021Y017019D01*
X009058Y017110D01*
X009083Y017204D01*
X009096Y017301D01*
X009096Y017350D01*
X008350Y017350D01*
X009850Y017350D01*
X009850Y015350D01*
X006850Y015350D01*
X007596Y015305D02*
X012104Y015305D01*
X012104Y015301D02*
X012105Y015289D01*
X011806Y015165D01*
X011535Y014894D01*
X011389Y014541D01*
X011389Y014159D01*
X011535Y013806D01*
X011806Y013535D01*
X012105Y013411D01*
X012104Y013399D01*
X012104Y013350D01*
X012104Y013301D01*
X012105Y013289D01*
X011806Y013165D01*
X011535Y012894D01*
X011389Y012541D01*
X011389Y012159D01*
X011535Y011806D01*
X011806Y011535D01*
X012105Y011411D01*
X012104Y011399D01*
X012104Y011350D01*
X012104Y011301D01*
X012105Y011289D01*
X011806Y011165D01*
X011535Y010894D01*
X011389Y010541D01*
X011389Y010159D01*
X011535Y009806D01*
X011806Y009535D01*
X012105Y009411D01*
X012104Y009399D01*
X012104Y009350D01*
X012104Y009301D01*
X012105Y009289D01*
X011806Y009165D01*
X011535Y008894D01*
X011389Y008541D01*
X011389Y008159D01*
X011535Y007806D01*
X011806Y007535D01*
X012105Y007411D01*
X012104Y007399D01*
X012104Y007350D01*
X012104Y007301D01*
X012105Y007289D01*
X011806Y007165D01*
X011535Y006894D01*
X011389Y006541D01*
X011389Y006159D01*
X011535Y005806D01*
X011806Y005535D01*
X012105Y005411D01*
X012104Y005399D01*
X012104Y005350D01*
X012104Y005301D01*
X012105Y005289D01*
X011806Y005165D01*
X011535Y004894D01*
X011389Y004541D01*
X011389Y004159D01*
X011535Y003806D01*
X011806Y003535D01*
X012105Y003411D01*
X012104Y003399D01*
X012104Y003350D01*
X012104Y003301D01*
X012105Y003289D01*
X011806Y003165D01*
X011535Y002894D01*
X011389Y002344D02*
X008311Y002344D01*
X008181Y001846D02*
X011519Y001846D01*
X012350Y002350D02*
X015350Y002350D01*
X016850Y003850D01*
X016850Y002850D02*
X015350Y001350D01*
X010350Y001350D01*
X009850Y001850D01*
X009850Y003350D01*
X006350Y003350D01*
X005350Y002350D01*
X004850Y002350D01*
X003850Y002350D01*
X004850Y002350D01*
X005596Y002350D01*
X004850Y002350D01*
X004850Y002350D01*
X004850Y002350D01*
X004104Y002350D01*
X003850Y002350D01*
X003850Y002350D01*
X003850Y003350D02*
X002850Y003350D01*
X002350Y003850D01*
X002350Y008850D01*
X002850Y009350D01*
X003350Y009350D01*
X002596Y010127D02*
X002577Y010196D01*
X002564Y010298D01*
X002564Y010350D01*
X002850Y010350D01*
X002850Y010350D01*
X000700Y010350D01*
X000700Y010320D02*
X002564Y010320D01*
X002596Y010127D02*
X002388Y010041D01*
X001888Y009541D01*
X001659Y009312D01*
X001551Y009051D01*
X001350Y008850D01*
X001350Y003350D01*
X003350Y001350D01*
X001350Y003350D01*
X001350Y008850D01*
X002850Y010350D01*
X003350Y010350D01*
X003350Y011350D02*
X002350Y011350D01*
X000700Y011350D01*
X000700Y019996D01*
X004350Y019996D01*
X004350Y019350D01*
X003350Y019350D01*
X001350Y017350D01*
X001350Y012350D01*
X002350Y011350D01*
X001350Y012350D01*
X001350Y017350D01*
X003350Y019350D01*
X004850Y019350D01*
X006850Y017350D01*
X007350Y017350D01*
X007350Y016350D01*
X008163Y015804D02*
X011537Y015804D01*
X011535Y015806D02*
X011806Y015535D01*
X012105Y015411D01*
X012104Y015399D01*
X012104Y015350D01*
X012104Y015301D01*
X012104Y015350D02*
X012850Y015350D01*
X009850Y015350D01*
X009850Y013350D01*
X012850Y013350D01*
X012850Y013350D01*
X012104Y013350D01*
X012850Y013350D01*
X012104Y013311D02*
X007542Y013311D01*
X007158Y013311D02*
X006542Y013311D01*
X006158Y013311D02*
X005351Y013311D01*
X005350Y013350D02*
X009850Y013350D01*
X009850Y011350D01*
X012850Y011350D01*
X012850Y011350D01*
X012104Y011350D01*
X012850Y011350D01*
X012104Y011317D02*
X007096Y011317D01*
X007096Y011350D02*
X006350Y011350D01*
X009850Y011350D01*
X009850Y009350D01*
X006350Y009350D01*
X007096Y009350D01*
X006350Y009350D01*
X006350Y009350D01*
X007096Y009323D02*
X012104Y009323D01*
X012104Y009350D02*
X012850Y009350D01*
X009850Y009350D01*
X009850Y007350D01*
X012850Y007350D01*
X012850Y007350D01*
X012104Y007350D01*
X012850Y007350D01*
X012104Y007329D02*
X006596Y007329D01*
X006596Y007350D02*
X005850Y007350D01*
X009850Y007350D01*
X009850Y005350D01*
X005850Y005350D01*
X006596Y005350D01*
X005850Y005350D01*
X005850Y005350D01*
X006596Y005335D02*
X012104Y005335D01*
X012104Y005350D02*
X012850Y005350D01*
X009850Y005350D01*
X009850Y003350D01*
X012850Y003350D01*
X012850Y003350D01*
X012104Y003350D01*
X012850Y003350D01*
X012104Y003341D02*
X005994Y003341D01*
X006190Y002843D02*
X005495Y002843D01*
X005596Y002344D02*
X005691Y002344D01*
X004850Y001350D02*
X004850Y001350D01*
X004296Y000849D02*
X000700Y000849D01*
X000700Y001347D02*
X004104Y001347D01*
X002854Y001846D02*
X000700Y001846D01*
X000700Y002344D02*
X002356Y002344D01*
X001857Y002843D02*
X000700Y002843D01*
X000700Y003341D02*
X001359Y003341D01*
X001350Y003840D02*
X000700Y003840D01*
X000700Y004338D02*
X001350Y004338D01*
X001350Y004837D02*
X000700Y004837D01*
X000700Y005335D02*
X001350Y005335D01*
X001350Y005834D02*
X000700Y005834D01*
X000700Y006332D02*
X001350Y006332D01*
X001350Y006831D02*
X000700Y006831D01*
X000700Y007329D02*
X001350Y007329D01*
X001350Y007828D02*
X000700Y007828D01*
X000700Y008326D02*
X001350Y008326D01*
X001350Y008825D02*
X000700Y008825D01*
X000700Y009323D02*
X001670Y009323D01*
X001888Y009541D02*
X001888Y009541D01*
X002169Y009822D02*
X000700Y009822D01*
X000700Y011816D02*
X001884Y011816D01*
X001386Y012314D02*
X000700Y012314D01*
X000700Y012813D02*
X001350Y012813D01*
X001350Y013311D02*
X000700Y013311D01*
X000700Y013810D02*
X001350Y013810D01*
X001350Y014308D02*
X000700Y014308D01*
X000700Y014807D02*
X001350Y014807D01*
X001350Y015305D02*
X000700Y015305D01*
X000700Y015804D02*
X001350Y015804D01*
X001350Y016302D02*
X000700Y016302D01*
X000700Y016801D02*
X001350Y016801D01*
X001350Y017299D02*
X000700Y017299D01*
X000700Y017798D02*
X001798Y017798D01*
X002296Y018296D02*
X000700Y018296D01*
X000700Y018795D02*
X002795Y018795D01*
X003293Y019293D02*
X000700Y019293D01*
X000700Y019792D02*
X004350Y019792D01*
X005356Y019996D02*
X019370Y019996D01*
X019370Y005850D01*
X019351Y005850D01*
X019351Y006049D01*
X019227Y006350D01*
X019351Y006651D01*
X019351Y007049D01*
X019227Y007350D01*
X019351Y007651D01*
X019351Y008049D01*
X019227Y008350D01*
X019351Y008651D01*
X019351Y009049D01*
X019227Y009350D01*
X019351Y009651D01*
X019351Y010049D01*
X019227Y010350D01*
X019351Y010651D01*
X019351Y011049D01*
X019227Y011350D01*
X019351Y011651D01*
X019351Y012049D01*
X019227Y012350D01*
X019351Y012651D01*
X019351Y013049D01*
X019199Y013417D01*
X019074Y013542D01*
X019096Y013597D01*
X019123Y013696D01*
X019136Y013798D01*
X019136Y013850D01*
X018552Y013850D01*
X018552Y013850D01*
X019136Y013850D01*
X019136Y013902D01*
X019123Y014004D01*
X019096Y014103D01*
X019057Y014198D01*
X019005Y014288D01*
X018942Y014370D01*
X018870Y014442D01*
X018788Y014505D01*
X018698Y014557D01*
X018603Y014596D01*
X018504Y014623D01*
X018402Y014636D01*
X018350Y014636D01*
X018298Y014636D01*
X018196Y014623D01*
X018097Y014596D01*
X018002Y014557D01*
X017912Y014505D01*
X017830Y014442D01*
X017758Y014370D01*
X017695Y014288D01*
X017643Y014198D01*
X017604Y014103D01*
X017577Y014004D01*
X017564Y013902D01*
X017564Y013850D01*
X017564Y013798D01*
X017565Y013787D01*
X015811Y015541D01*
X015665Y015894D01*
X015394Y016165D01*
X015041Y016311D01*
X014659Y016311D01*
X014558Y016270D01*
X014541Y016312D01*
X014041Y016812D01*
X013812Y017041D01*
X013512Y017165D01*
X012894Y017165D01*
X012541Y017311D01*
X012159Y017311D01*
X011806Y017165D01*
X011535Y016894D01*
X011389Y016541D01*
X011389Y016159D01*
X011535Y015806D01*
X011389Y016302D02*
X008311Y016302D01*
X008350Y016604D02*
X008350Y017350D01*
X008350Y017350D01*
X008350Y018096D01*
X008301Y018096D01*
X008204Y018083D01*
X008110Y018058D01*
X008033Y018026D01*
X007894Y018165D01*
X007541Y018311D01*
X007159Y018311D01*
X007076Y018277D01*
X005356Y019996D01*
X005561Y019792D02*
X019370Y019792D01*
X019370Y019293D02*
X006060Y019293D01*
X006558Y018795D02*
X019370Y018795D01*
X019370Y018296D02*
X007578Y018296D01*
X007122Y018296D02*
X007057Y018296D01*
X005850Y017350D02*
X005850Y015350D01*
X006850Y014350D01*
X007350Y014350D01*
X008201Y014807D02*
X011499Y014807D01*
X011389Y014308D02*
X008311Y014308D01*
X008166Y013810D02*
X011534Y013810D01*
X012350Y014350D02*
X013350Y014350D01*
X013850Y013850D01*
X013850Y013350D01*
X014850Y013350D02*
X016350Y011850D01*
X018350Y011850D01*
X018350Y012850D02*
X017350Y012850D01*
X014850Y015350D01*
X015703Y015804D02*
X019370Y015804D01*
X019370Y016302D02*
X015063Y016302D01*
X014637Y016302D02*
X014545Y016302D01*
X014052Y016801D02*
X019370Y016801D01*
X019370Y017299D02*
X012571Y017299D01*
X012129Y017299D02*
X009096Y017299D01*
X009096Y017350D02*
X009096Y017399D01*
X009083Y017496D01*
X009058Y017590D01*
X009021Y017681D01*
X008972Y017765D01*
X008912Y017843D01*
X008843Y017912D01*
X008765Y017972D01*
X008681Y018021D01*
X008590Y018058D01*
X008496Y018083D01*
X008399Y018096D01*
X008350Y018096D01*
X008350Y017350D01*
X009096Y017350D01*
X008947Y017798D02*
X019370Y017798D01*
X019370Y015305D02*
X016048Y015305D01*
X016546Y014807D02*
X019370Y014807D01*
X019370Y014308D02*
X018990Y014308D01*
X019136Y013810D02*
X019370Y013810D01*
X019370Y013311D02*
X019243Y013311D01*
X019351Y012813D02*
X019370Y012813D01*
X019370Y012314D02*
X019241Y012314D01*
X019351Y011816D02*
X019370Y011816D01*
X019370Y011317D02*
X019240Y011317D01*
X019351Y010819D02*
X019370Y010819D01*
X019370Y010320D02*
X019239Y010320D01*
X019351Y009822D02*
X019370Y009822D01*
X019370Y009323D02*
X019238Y009323D01*
X019351Y008825D02*
X019370Y008825D01*
X019370Y008326D02*
X019237Y008326D01*
X019351Y007828D02*
X019370Y007828D01*
X019370Y007329D02*
X019235Y007329D01*
X019351Y006831D02*
X019370Y006831D01*
X019370Y006332D02*
X019234Y006332D01*
X018350Y005850D02*
X017850Y005850D01*
X016850Y004850D01*
X015850Y004350D02*
X015850Y005350D01*
X017350Y006850D01*
X018350Y006850D01*
X018350Y007850D02*
X016850Y007850D01*
X014850Y005850D01*
X014850Y005350D01*
X013850Y005350D02*
X013850Y005850D01*
X013350Y006350D01*
X012350Y006350D01*
X011524Y005834D02*
X008176Y005834D01*
X008311Y006332D02*
X011389Y006332D01*
X011509Y006831D02*
X008191Y006831D01*
X007350Y006350D02*
X005850Y006350D01*
X004350Y006350D01*
X005850Y007350D02*
X005850Y007350D01*
X006596Y007350D01*
X005850Y008350D02*
X007350Y008350D01*
X008194Y008825D02*
X011506Y008825D01*
X011389Y008326D02*
X008311Y008326D01*
X008174Y007828D02*
X011526Y007828D01*
X012350Y008350D02*
X013350Y008350D01*
X013850Y007850D01*
X013850Y007350D01*
X014850Y007350D02*
X014850Y007850D01*
X015850Y008850D01*
X018350Y008850D01*
X018350Y009850D02*
X015350Y009850D01*
X014850Y009350D01*
X013850Y009350D02*
X013850Y009850D01*
X013350Y010350D01*
X012350Y010350D01*
X011529Y009822D02*
X008171Y009822D01*
X008311Y010320D02*
X011389Y010320D01*
X011504Y010819D02*
X008196Y010819D01*
X007350Y010350D02*
X006350Y010350D01*
X005850Y010350D01*
X004850Y009350D01*
X004350Y009350D01*
X004350Y008350D02*
X005850Y008350D01*
X006350Y011350D02*
X006350Y011350D01*
X007096Y011350D01*
X007350Y012350D02*
X006350Y012350D01*
X005850Y012350D01*
X004850Y011350D01*
X004350Y011350D01*
X003350Y013350D02*
X002850Y013350D01*
X002350Y013850D01*
X002350Y016850D01*
X003850Y018350D01*
X004850Y018350D01*
X005850Y017350D01*
X008350Y017350D02*
X008350Y017350D01*
X008350Y017350D01*
X008350Y016604D01*
X008350Y016801D02*
X008350Y016801D01*
X008350Y017299D02*
X008350Y017299D01*
X008350Y017798D02*
X008350Y017798D01*
X008856Y016801D02*
X011496Y016801D01*
X012350Y016350D02*
X013350Y016350D01*
X013850Y015850D01*
X013850Y015350D01*
X012850Y015350D02*
X012850Y015350D01*
X012104Y015350D01*
X009850Y017350D02*
X014850Y017350D01*
X018350Y013850D01*
X018350Y013851D02*
X018350Y014636D01*
X018350Y013851D01*
X018350Y013851D01*
X018148Y013850D02*
X018148Y013850D01*
X017564Y013850D01*
X018148Y013850D01*
X018350Y014308D02*
X018350Y014308D01*
X017710Y014308D02*
X017045Y014308D01*
X017543Y013810D02*
X017564Y013810D01*
X014850Y011350D02*
X015350Y010850D01*
X018350Y010850D01*
X013850Y011350D02*
X013850Y011850D01*
X013350Y012350D01*
X012350Y012350D01*
X011531Y011816D02*
X008169Y011816D01*
X008311Y012314D02*
X011389Y012314D01*
X011501Y012813D02*
X008199Y012813D01*
X006238Y013810D02*
X005243Y013810D01*
X005350Y013350D02*
X004850Y014350D01*
X005136Y014350D02*
X004552Y014350D01*
X004552Y014350D01*
X004552Y014350D01*
X005136Y014350D01*
X005136Y014308D02*
X005739Y014308D01*
X012104Y009350D02*
X012850Y009350D01*
X012850Y009350D01*
X012850Y005350D02*
X012104Y005350D01*
X011511Y004837D02*
X008189Y004837D01*
X008311Y004338D02*
X011389Y004338D01*
X011521Y003840D02*
X008179Y003840D01*
X007350Y004350D02*
X005850Y004350D01*
X004850Y003350D01*
X003850Y003350D01*
X006501Y000849D02*
X016850Y000849D01*
X016850Y001347D02*
X007000Y001347D01*
X012350Y004350D02*
X013350Y004350D01*
X013850Y003850D01*
X013850Y003350D01*
X014850Y003350D02*
X015850Y004350D01*
X017850Y004243D02*
X017912Y004195D01*
X018002Y004143D01*
X018097Y004104D01*
X018196Y004077D01*
X018298Y004064D01*
X018350Y004064D01*
X018402Y004064D01*
X018504Y004077D01*
X018603Y004104D01*
X018698Y004143D01*
X018788Y004195D01*
X018870Y004258D01*
X018942Y004330D01*
X019005Y004412D01*
X019057Y004502D01*
X019096Y004597D01*
X019123Y004696D01*
X019136Y004798D01*
X019136Y004850D01*
X018552Y004850D01*
X019370Y004850D01*
X019370Y000700D01*
X017850Y000700D01*
X017850Y004243D01*
X017850Y003840D02*
X019370Y003840D01*
X019370Y004338D02*
X018948Y004338D01*
X019136Y004837D02*
X019370Y004837D01*
X018552Y004850D02*
X018552Y004850D01*
X018350Y004849D02*
X018350Y004064D01*
X018350Y004849D01*
X018350Y004849D01*
X018350Y004837D02*
X018350Y004837D01*
X018350Y004338D02*
X018350Y004338D01*
X017850Y003341D02*
X019370Y003341D01*
X019370Y002843D02*
X017850Y002843D01*
X017850Y002344D02*
X019370Y002344D01*
X019370Y001846D02*
X017850Y001846D01*
X017850Y001347D02*
X019370Y001347D01*
X019370Y000849D02*
X017850Y000849D01*
X016850Y001846D02*
X015998Y001846D01*
X016850Y002344D02*
X016850Y002344D01*
X012850Y005350D02*
X012850Y005350D01*
D13*
X018350Y004850D02*
X018350Y001350D01*
X004850Y014350D02*
X004350Y014350D01*
X004350Y016350D02*
X004350Y017350D01*
D14*
X004350Y017350D03*
D15*
X018350Y001350D03*
M02*
