%
M48
M72
T01C0.0236
T02C0.0320
T03C0.0400
%
T01
X4350Y17350
X18350Y1350
T02
X3850Y2350
X3850Y3350
X4850Y2350
X4850Y1350
X7350Y2350
X7350Y4350
X5850Y5350
X5850Y6350
X5850Y7350
X5850Y8350
X6350Y9350
X6350Y10350
X6350Y11350
X6350Y12350
X7350Y12350
X7350Y10350
X7350Y8350
X7350Y6350
X12350Y6350
X12850Y5350
X12350Y4350
X12850Y3350
X13850Y3350
X14850Y3350
X14850Y5350
X13850Y5350
X13850Y7350
X12850Y7350
X12350Y8350
X12850Y9350
X13850Y9350
X14850Y9350
X14850Y11350
X13850Y11350
X12850Y11350
X12350Y10350
X12350Y12350
X12850Y13350
X13850Y13350
X14850Y13350
X14850Y15350
X13850Y15350
X12850Y15350
X12350Y16350
X12350Y14350
X8350Y17350
X7350Y17350
X7350Y16350
X6850Y15350
X5850Y15350
X7350Y14350
X14850Y7350
X16850Y4850
X16850Y3850
X16850Y2850
X12350Y2350
T03
X18350Y4850
X18350Y5850
X18350Y6850
X18350Y7850
X18350Y8850
X18350Y9850
X18350Y10850
X18350Y11850
X18350Y12850
X18350Y13850
X4350Y13350
X4350Y12350
X4350Y11350
X4350Y10350
X4350Y9350
X4350Y8350
X4350Y7350
X4350Y6350
X4350Y5350
X4350Y4350
X3350Y4350
X3350Y5350
X3350Y6350
X3350Y7350
X3350Y8350
X3350Y9350
X3350Y10350
X3350Y11350
X3350Y12350
X3350Y13350
X3350Y14350
X3350Y15350
X3350Y16350
X4350Y16350
X4350Y15350
X4350Y14350
M30
