G75*
G70*
%OFA0B0*%
%FSLAX24Y24*%
%IPPOS*%
%LPD*%
%AMOC8*
5,1,8,0,0,1.08239X$1,22.5*
%
%ADD10C,0.0000*%
%ADD11C,0.0872*%
%ADD12C,0.0792*%
%ADD13C,0.2300*%
%ADD14C,0.0500*%
%ADD15C,0.0860*%
D10*
X000100Y000100D02*
X000100Y020096D01*
X019470Y020096D01*
X019470Y000100D01*
X000100Y000100D01*
D11*
X002100Y003100D03*
X002100Y004100D03*
X002100Y005100D03*
X002100Y006100D03*
X002100Y007100D03*
X002100Y008100D03*
X002100Y009100D03*
X002100Y010100D03*
X002100Y011100D03*
X002100Y012100D03*
X002100Y013100D03*
X002100Y014100D03*
X002100Y015100D03*
X003100Y015100D03*
X003100Y014100D03*
X003100Y013100D03*
X003100Y012100D03*
X003100Y011100D03*
X003100Y010100D03*
X003100Y009100D03*
X003100Y008100D03*
X003100Y007100D03*
X003100Y006100D03*
X003100Y005100D03*
X003100Y004100D03*
X003100Y003100D03*
X012600Y016600D03*
X013600Y016600D03*
X014600Y016600D03*
X015600Y016600D03*
X016600Y016600D03*
X017600Y016600D03*
D12*
X013600Y010100D03*
X012600Y010100D03*
X011600Y010100D03*
X011100Y011100D03*
X011100Y009100D03*
X011600Y008100D03*
X012600Y008100D03*
X013600Y008100D03*
X013600Y006100D03*
X012600Y006100D03*
X011600Y006100D03*
X011100Y005100D03*
X011600Y004100D03*
X012600Y004100D03*
X013600Y004100D03*
X011100Y007100D03*
X006100Y007100D03*
X005100Y008100D03*
X005100Y009100D03*
X005100Y010100D03*
X005100Y011100D03*
X006100Y011100D03*
X006100Y009100D03*
X004600Y007100D03*
X004600Y006100D03*
X004600Y005100D03*
X004600Y004100D03*
X006100Y005100D03*
D13*
X017600Y002100D03*
X002600Y018100D03*
D14*
X004600Y011100D02*
X003600Y010100D01*
X003100Y010100D01*
X004600Y009100D02*
X005100Y009100D01*
X006100Y009100D01*
X005100Y008100D02*
X008600Y008100D01*
X011600Y008100D01*
X012600Y008100D02*
X012600Y008600D01*
X012100Y009100D01*
X011100Y009100D01*
X011600Y010100D02*
X008600Y010100D01*
X005100Y010100D01*
X005100Y011100D02*
X004600Y011100D01*
X005100Y011100D02*
X006100Y011100D01*
X004600Y009100D02*
X003600Y008100D01*
X003100Y008100D01*
X003100Y007100D02*
X004600Y007100D01*
X006100Y007100D01*
X004600Y006100D02*
X008600Y006100D01*
X011600Y006100D01*
X012600Y006100D02*
X012600Y006600D01*
X012100Y007100D01*
X011100Y007100D01*
X011100Y005100D02*
X012100Y005100D01*
X012600Y004600D01*
X012600Y004100D01*
X011600Y004100D02*
X008600Y004100D01*
X004600Y004100D01*
X004600Y005100D02*
X003100Y005100D01*
X004600Y005100D02*
X006100Y005100D01*
X011100Y011100D02*
X012100Y011100D01*
X012600Y010600D01*
X012600Y010100D01*
X013600Y010100D02*
X013600Y016600D01*
X014600Y016600D02*
X014600Y008600D01*
X014100Y008100D01*
X013600Y008100D01*
X013600Y006100D02*
X015100Y006100D01*
X015600Y006600D01*
X015600Y016600D01*
X016600Y016600D02*
X016600Y004600D01*
X016100Y004100D01*
X013600Y004100D01*
D15*
X008600Y004100D02*
X008600Y006100D01*
X008600Y008100D01*
X008600Y010100D01*
X008600Y013100D01*
X003100Y013100D01*
X003100Y015100D02*
X005600Y015100D01*
X006100Y015600D01*
X006100Y018100D01*
X006600Y018600D01*
X017100Y018600D01*
X017600Y018100D01*
X017600Y016600D01*
X012600Y016600D02*
X009100Y016600D01*
X008600Y016100D01*
X008600Y013100D01*
M02*
